name ./resultDataOpenSim/trcMotMarkerGrf/sub06/grf-05-04.mot
datacolumns 19
datarows 15
range 0.52000000 0.57600000
endheader

                time	     ground_force_vx	     ground_force_vy	     ground_force_vz	     ground_force_px	     ground_force_py	     ground_force_pz	   l_ground_force_vx	   l_ground_force_vy	   l_ground_force_vz	   l_ground_force_px	   l_ground_force_py	   l_ground_force_pz	     ground_torque_x	     ground_torque_y	     ground_torque_z	   l_ground_torque_x	   l_ground_torque_y	   l_ground_torque_z	
          0.52000000	         36.12979578	        295.99742582	        -22.35974345	         -0.77439374	          0.00000000	          0.15967840	          0.00000000	          0.00000000	          0.00000000	          0.00000000	          0.00000000	          0.00000000	          0.00000000	          0.43611211	          0.00000000	          0.00000000	          0.00000000	          0.00000000	
          0.52400000	         38.15981326	        308.17695580	        -23.45606257	         -0.77433206	          0.00000000	          0.15950599	          0.00000000	          0.00000000	          0.00000000	          0.00000000	          0.00000000	          0.00000000	          0.00000000	          0.43553020	          0.00000000	          0.00000000	          0.00000000	          0.00000000	
          0.52800000	         40.09761957	        321.69660954	        -24.47511782	         -0.77425610	          0.00000000	          0.15927016	          0.00000000	          0.00000000	          0.00000000	          0.00000000	          0.00000000	          0.00000000	          0.00000000	          0.47510841	          0.00000000	          0.00000000	          0.00000000	          0.00000000	
          0.53200000	         42.01355619	        336.31841956	        -25.50010241	         -0.77417398	          0.00000000	          0.15900535	          0.00000000	          0.00000000	          0.00000000	          0.00000000	          0.00000000	          0.00000000	          0.00000000	          0.54548241	          0.00000000	          0.00000000	          0.00000000	          0.00000000	
          0.53600000	         44.04456222	        351.72607426	        -26.62311912	         -0.77408091	          0.00000000	          0.15876087	          0.00000000	          0.00000000	          0.00000000	          0.00000000	          0.00000000	          0.00000000	          0.00000000	          0.63154034	          0.00000000	          0.00000000	          0.00000000	          0.00000000	
          0.54000000	         46.36599413	        367.61441694	        -27.91896465	         -0.77400491	          0.00000000	          0.15854402	          0.00000000	          0.00000000	          0.00000000	          0.00000000	          0.00000000	          0.00000000	          0.00000000	          0.71678836	          0.00000000	          0.00000000	          0.00000000	          0.00000000	
          0.54400000	         49.15115093	        383.75068382	        -29.42195842	         -0.77401368	          0.00000000	          0.15832019	          0.00000000	          0.00000000	          0.00000000	          0.00000000	          0.00000000	          0.00000000	          0.00000000	          0.78776322	          0.00000000	          0.00000000	          0.00000000	          0.00000000	
          0.54800000	         52.52997738	        399.97717266	        -31.11042251	         -0.77415946	          0.00000000	          0.15805480	          0.00000000	          0.00000000	          0.00000000	          0.00000000	          0.00000000	          0.00000000	          0.00000000	          0.83743967	          0.00000000	          0.00000000	          0.00000000	          0.00000000	
          0.55200000	         56.55460178	        416.17577691	        -32.90368126	         -0.77443718	          0.00000000	          0.15774005	          0.00000000	          0.00000000	          0.00000000	          0.00000000	          0.00000000	          0.00000000	          0.00000000	          0.86692188	          0.00000000	          0.00000000	          0.00000000	          0.00000000	
          0.55600000	         61.18542737	        432.24246898	        -34.67438160	         -0.77478928	          0.00000000	          0.15739032	          0.00000000	          0.00000000	          0.00000000	          0.00000000	          0.00000000	          0.00000000	          0.00000000	          0.88510791	          0.00000000	          0.00000000	          0.00000000	          0.00000000	
          0.56000000	         66.30924212	        448.10605006	        -36.27259221	         -0.77513902	          0.00000000	          0.15702422	          0.00000000	          0.00000000	          0.00000000	          0.00000000	          0.00000000	          0.00000000	          0.00000000	          0.90642318	          0.00000000	          0.00000000	          0.00000000	          0.00000000	
          0.56400000	         71.77841241	        463.77282207	        -37.55499913	         -0.77542875	          0.00000000	          0.15664783	          0.00000000	          0.00000000	          0.00000000	          0.00000000	          0.00000000	          0.00000000	          0.00000000	          0.94714303	          0.00000000	          0.00000000	          0.00000000	          0.00000000	
          0.56800000	         77.44746295	        479.33643797	        -38.41571323	         -0.77563316	          0.00000000	          0.15625254	          0.00000000	          0.00000000	          0.00000000	          0.00000000	          0.00000000	          0.00000000	          0.00000000	          1.02119946	          0.00000000	          0.00000000	          0.00000000	          0.00000000	
          0.57200000	         83.19488582	        494.92181814	        -38.81295389	         -0.77574145	          0.00000000	          0.15583156	          0.00000000	          0.00000000	          0.00000000	          0.00000000	          0.00000000	          0.00000000	          0.00000000	          1.13653728	          0.00000000	          0.00000000	          0.00000000	          0.00000000	
          0.57600000	         88.93473196	        510.60422569	        -38.77999639	         -0.77574195	          0.00000000	          0.15538953	          0.00000000	          0.00000000	          0.00000000	          0.00000000	          0.00000000	          0.00000000	          0.00000000	          1.29293265	          0.00000000	          0.00000000	          0.00000000	          0.00000000	
